<svg width="126" height="34" viewBox="0 0 126 34" fill="none" xmlns="http://www.w3.org/2000/svg">
<path d="M13.3875 0.172729C6.02438 0.172729 0 6.14057 0 13.4346C0 20.7287 6.02438 26.6965 13.3875 26.6965C20.7506 26.6965 26.775 20.7655 26.775 13.4346C26.775 6.10374 20.7878 0.172729 13.3875 0.172729ZM13.3875 21.9444C8.81344 21.9444 5.13188 18.2237 5.13188 13.4346C5.13188 8.6456 8.81344 4.9249 13.3875 4.9249C17.9616 4.9249 21.6431 8.6456 21.6431 13.4346C21.6431 18.2237 17.9616 21.9444 13.3875 21.9444Z" fill="black"/>
<path d="M40.3108 7.54041C37.8936 7.54041 35.5508 8.49821 34.3236 10.1191V7.90879H29.4893V33.6958H34.3236V24.3757C35.5508 25.8861 37.8193 26.6965 40.3108 26.6965C45.5169 26.6965 49.6076 22.6443 49.6076 17.1185C49.6076 11.5927 45.5169 7.54041 40.3108 7.54041ZM39.4927 22.5337C36.7408 22.5337 34.2864 20.3971 34.2864 17.1185C34.2864 13.8398 36.7408 11.7032 39.4927 11.7032C42.2446 11.7032 44.6988 13.8398 44.6988 17.1185C44.6988 20.3971 42.2446 22.5337 39.4927 22.5337Z" fill="black"/>
<path d="M60.9879 7.54041C55.7072 7.54041 51.5422 11.6295 51.5422 17.1185C51.5422 22.6074 55.1866 26.6965 61.1366 26.6965C66.0082 26.6965 69.1319 23.7863 70.0988 20.5076H65.376C64.781 21.8706 63.1076 22.8284 61.0994 22.8284C58.6079 22.8284 56.7113 21.097 56.2651 18.6288H70.3219V16.7501C70.3219 11.74 66.7891 7.54041 60.9879 7.54041ZM56.3022 15.2397C56.8229 12.9188 58.7566 11.4085 61.0994 11.4085C63.591 11.4085 65.4875 13.0294 65.7107 15.2397H56.3022Z" fill="black"/>
<path d="M83.1886 7.54041C81.0318 7.54041 78.7633 8.49821 77.7221 10.0823V7.90879H72.8877V26.3281H77.7221V16.4185C77.7221 13.5451 79.2839 11.6663 81.8127 11.6663C84.1555 11.6663 85.4199 13.4346 85.4199 15.9028V26.3281H90.2543V15.1292C90.2543 10.5612 87.428 7.54041 83.1886 7.54041Z" fill="black"/>
<path d="M102.636 0.541748L92.1118 26.3288H97.2809L99.5121 20.6925H111.487L113.718 26.3288H118.961L108.512 0.541748H102.636ZM101.186 16.4192L105.499 5.62548L109.776 16.4192H101.186Z" fill="black"/>
<path d="M125.841 0.541748H120.932V26.3288H125.841V0.541748Z" fill="black"/>
</svg>
